<svg width="62" height="62" viewBox="0 0 62 62" fill="none" xmlns="http://www.w3.org/2000/svg">
<g clip-path="url(#clip0_0_5)">
<rect width="62" height="62" rx="31" fill="#6366F1"/>
</g>
<g clip-path="url(#clip1_0_5)">
<rect x="6" y="6" width="50" height="50" rx="25" fill="#F8FAFC"/>
</g>
<path fill-rule="evenodd" clip-rule="evenodd" d="M26.3502 1.15732C26.3502 1.24383 25.83 1.36812 25.1941 1.43364C24.5582 1.49898 23.679 1.66834 23.2405 1.80979C22.802 1.95123 21.8409 2.24745 21.1049 2.46773C20.3687 2.68802 19.551 2.98131 19.2876 3.11929C19.0241 3.25744 18.7281 3.37078 18.6298 3.37151C18.3732 3.37316 16.1258 4.50471 15.8545 4.76898C15.7289 4.89126 15.4491 5.04785 15.2324 5.11684C15.0158 5.18583 14.7505 5.31486 14.6429 5.40338C14.5353 5.49189 13.9156 5.91039 13.266 6.33308C12.6163 6.75595 12.003 7.19086 11.903 7.29982C11.8031 7.4086 11.3533 7.79405 10.9035 8.15615C7.60704 10.81 4.2562 15.3309 2.61303 19.3421C2.36625 19.9444 2.09457 20.6014 2.00916 20.8021C1.06437 23.0245 0 28.6319 0 31.3876C0 32.6778 0.436141 36.1148 0.833757 37.9579C1.59791 41.4997 3.14585 45.1661 5.18736 48.2696C5.68256 49.0225 6.12925 49.6795 6.17976 49.7297C6.23028 49.7799 6.51505 50.1495 6.81272 50.551C7.11038 50.9525 7.70281 51.6322 8.12932 52.0614C8.55565 52.4907 8.90456 52.922 8.90456 53.0196C8.90456 53.1174 8.97925 53.1974 9.07066 53.1974C9.16207 53.1974 9.51607 53.4642 9.85735 53.7905C10.7887 54.6808 11.6646 55.4269 12.3653 55.9268C12.7108 56.1733 13.0752 56.4442 13.1751 56.5287C13.6812 56.9565 15.3685 57.9528 16.9914 58.7821C23.1978 61.9536 30.5868 62.8265 37.4355 61.1971C39.1036 60.8001 40.581 60.3756 41.1609 60.1263C41.3608 60.0403 41.9332 59.7943 42.433 59.5795C43.7606 59.0086 44.7005 58.537 45.5223 58.0293C45.9221 57.7821 46.3719 57.523 46.5218 57.4533C46.8449 57.3029 48.3165 56.2874 49.3385 55.5094C50.4358 54.6742 53.6062 51.4367 54.6409 50.0947C57.2102 46.763 59.0709 42.9156 60.0253 38.9617C60.9405 35.1708 61.1723 32.4794 60.8825 29.015C60.6148 25.8166 59.8352 22.4243 58.8481 20.1634C58.6507 19.7117 58.3674 19.0546 58.2182 18.7033C58.069 18.352 57.7726 17.736 57.5594 17.3345C57.3463 16.933 57.045 16.3581 56.8898 16.0571C56.7346 15.756 56.5667 15.4685 56.5167 15.4183C56.4667 15.368 56.0987 14.835 55.6989 14.2337C54.2073 11.9905 51.6034 9.19498 49.5203 7.60059C48.9206 7.14158 48.389 6.71926 48.339 6.66213C48.1631 6.46064 46.6964 5.53004 45.9766 5.16301C45.7267 5.03562 45.4814 4.87976 45.4314 4.81661C45.2726 4.61585 43.5357 3.73762 43.2976 3.73762C43.1719 3.73762 43.069 3.6555 43.069 3.55512C43.069 3.45474 42.9258 3.37206 42.751 3.37151C42.5762 3.37078 42.2136 3.25544 41.9454 3.11491C41.6773 2.97437 41.1867 2.80117 40.855 2.73C40.5236 2.65864 40.1654 2.53052 40.0591 2.44492C39.9528 2.35951 39.5817 2.25401 39.2342 2.21076C38.8868 2.16751 38.288 2.00014 37.9034 1.83881C37.5191 1.67747 36.6432 1.49314 35.957 1.42908C35.271 1.36502 34.7096 1.24219 34.7096 1.15623C34.7096 1.07027 32.8288 1 30.5299 1C28.2311 1 26.3502 1.07081 26.3502 1.15732ZM47.7361 20.6841C51.1558 22.4504 50.6817 27.6878 47.0221 28.5695C45.2463 28.9973 43.5333 28.458 42.5398 27.1584C41.279 25.5089 41.3731 23.0171 42.7506 21.5816C44.0792 20.1971 46.0918 19.8349 47.7361 20.6841ZM18.3997 25.6483C18.7746 25.7527 19.0812 25.9166 19.0812 26.0122C19.0812 26.1078 19.1864 26.1861 19.3153 26.1861C19.6411 26.1861 32.1782 38.8095 32.5854 39.5476C32.8506 40.0285 32.9027 40.4448 32.8471 41.6378C32.7835 42.9993 32.7237 43.199 32.1535 43.9592C31.8102 44.4165 31.4273 44.7932 31.3023 44.7963C31.1774 44.7994 31.0751 44.8764 31.0751 44.9673C31.0751 45.2165 29.4716 45.7145 28.6691 45.7145C27.0346 45.7145 26.3533 45.1635 20.2392 38.898C20.1265 38.7825 19.0225 37.6926 17.7859 36.4758C13.2867 32.0492 12.906 31.526 12.9036 29.7662C12.9018 28.5686 13.2903 27.6455 14.1833 26.7245C15.2868 25.587 16.7973 25.2013 18.3997 25.6483ZM39.5699 29.1727C42.1827 30.8472 42.4555 34.1185 40.1474 36.1024C38.2914 37.698 35.4772 37.2983 33.9971 35.2289C33.4177 34.4189 33.3727 34.2559 33.3688 32.9632C33.363 30.9919 33.904 30.0219 35.5163 29.1125C36.3704 28.6307 36.6773 28.5708 37.8435 28.6577C38.5304 28.7088 39.1208 28.8851 39.5699 29.1727Z" fill="#6366F1"/>
<defs>
<clipPath id="clip0_0_5">
<rect width="62" height="62" rx="31" fill="white"/>
</clipPath>
<clipPath id="clip1_0_5">
<rect x="6" y="6" width="50" height="50" rx="25" fill="white"/>
</clipPath>
</defs>
</svg>
